<svg width="206" height="183" viewBox="0 0 206 183" fill="none" xmlns="http://www.w3.org/2000/svg">
<mask id="path-1-inside-1_366_217" fill="white">
<path fill-rule="evenodd" clip-rule="evenodd" d="M71.678 76.9147C58.6737 65.6493 45.289 49.6136 45.289 30.8687C45.289 13.1011 60.0747 0 75.2682 0C87.2578 0 96.932 6.29387 102.78 15.94C108.634 6.29387 118.303 0 130.293 0C145.481 0 160.272 13.1011 160.272 30.8738C160.272 49.9429 146.415 66.2131 133.208 77.4909C134.978 77.1386 136.755 76.8155 138.538 76.5218C156.182 73.6836 178.743 73.5328 194.252 86.5461C208.31 98.3427 209.183 118.354 199.428 129.98C191.731 139.154 180.539 142.378 169.152 140.448C173.026 151.332 171.798 162.909 164.1 172.083C154.349 183.704 134.486 186.323 120.423 174.523C110.562 166.249 105.447 154.24 102.962 142.001C100.484 154.07 95.4206 165.874 85.7309 174.069C71.718 185.919 51.8486 183.381 42.0489 171.793C34.3157 162.649 33.0396 151.073 36.8751 140.178C25.4918 142.148 14.2915 138.971 6.55822 129.827C-3.23813 118.243 -2.4457 98.2243 11.5713 86.3701C27.0297 73.297 49.5983 73.3613 67.2381 76.1376C68.7222 76.3763 70.2023 76.6354 71.678 76.9147Z"/>
</mask>
<path d="M71.678 76.9147L70.376 83.7926L95.8819 88.6208L76.2613 71.6239L71.678 76.9147ZM102.78 15.94L96.7947 19.5692L102.778 29.4374L108.765 19.5715L102.78 15.94ZM133.208 77.4909L128.663 72.1677L108.253 89.5957L134.575 84.3562L133.208 77.4909ZM138.538 76.5218L137.426 69.6106L137.413 69.6127L137.4 69.6149L138.538 76.5218ZM194.252 86.5461L198.751 81.1838L198.751 81.1838L194.252 86.5461ZM199.428 129.98L204.791 134.479L204.791 134.479L199.428 129.98ZM169.152 140.448L170.321 133.547L158.555 131.553L162.557 142.796L169.152 140.448ZM164.1 172.083L158.738 167.583L158.738 167.583L164.1 172.083ZM120.423 174.523L115.924 179.886L115.924 179.886L120.423 174.523ZM102.962 142.001L109.823 140.608L96.1055 140.592L102.962 142.001ZM85.7309 174.069L81.2107 168.724L81.2107 168.724L85.7309 174.069ZM42.0489 171.793L36.704 176.313L36.704 176.313L42.0489 171.793ZM36.8751 140.178L43.4779 142.503L47.4409 131.246L35.6818 133.281L36.8751 140.178ZM6.55822 129.827L11.9031 125.307L11.9031 125.307L6.55822 129.827ZM11.5713 86.3701L7.05111 81.0252L7.05111 81.0252L11.5713 86.3701ZM67.2381 76.1376L68.3496 69.2264L68.338 69.2246L68.3264 69.2227L67.2381 76.1376ZM76.2613 71.6239C63.5302 60.5951 52.289 46.3617 52.289 30.8687H38.289C38.289 52.8656 53.8172 70.7035 67.0946 82.2055L76.2613 71.6239ZM52.289 30.8687C52.289 17.0848 63.8219 7 75.2682 7V-7C56.3275 -7 38.289 9.11736 38.289 30.8687H52.289ZM75.2682 7C84.5384 7 92.0674 11.7722 96.7947 19.5692L108.766 12.3109C101.797 0.815571 89.9771 -7 75.2682 -7V7ZM108.765 19.5715C113.499 11.7708 121.024 7 130.293 7V-7C115.582 -7 103.77 0.816954 96.7961 12.3085L108.765 19.5715ZM130.293 7C141.734 7 153.272 17.0848 153.272 30.8738H167.272C167.272 9.11736 149.228 -7 130.293 -7V7ZM153.272 30.8738C153.272 46.6449 141.618 61.1049 128.663 72.1677L137.754 82.8142C151.213 71.3214 167.272 53.241 167.272 30.8738H153.272ZM134.575 84.3562C136.269 84.019 137.969 83.7098 139.676 83.4287L137.4 69.6149C135.541 69.9212 133.688 70.2582 131.842 70.6256L134.575 84.3562ZM139.649 83.433C156.969 80.6471 176.75 80.9981 189.752 91.9084L198.751 81.1838C180.736 66.0675 155.396 66.7202 137.426 69.6106L139.649 83.433ZM189.752 91.9084C200.928 101.286 201.27 116.895 194.066 125.48L204.791 134.479C217.097 119.814 215.692 95.399 198.751 81.1838L189.752 91.9084ZM194.066 125.48C188.19 132.484 179.625 135.123 170.321 133.547L167.982 147.35C181.453 149.632 195.271 145.824 204.791 134.479L194.066 125.48ZM162.557 142.796C165.724 151.692 164.613 160.581 158.738 167.583L169.462 176.582C178.983 165.236 180.328 150.971 175.746 138.101L162.557 142.796ZM158.738 167.583C151.537 176.165 136.103 178.543 124.923 169.161L115.924 179.886C132.869 194.104 157.16 191.244 169.462 176.582L158.738 167.583ZM124.923 169.161C116.735 162.291 112.137 152.009 109.823 140.608L96.1024 143.393C98.7571 156.471 104.389 170.207 115.924 179.886L124.923 169.161ZM96.1055 140.592C93.8001 151.818 89.2554 161.92 81.2107 168.724L90.2511 179.414C101.586 169.828 107.167 156.322 109.819 143.409L96.1055 140.592ZM81.2107 168.724C70.0708 178.145 54.6309 175.83 47.3938 167.273L36.704 176.313C49.0664 190.931 73.3651 193.694 90.2511 179.414L81.2107 168.724ZM47.3938 167.273C41.4905 160.293 40.3442 151.404 43.4779 142.503L30.2724 137.854C25.7351 150.741 27.1408 165.005 36.704 176.313L47.3938 167.273ZM35.6818 133.281C26.377 134.891 17.8054 132.286 11.9031 125.307L1.21332 134.347C10.7776 145.656 24.6066 149.405 38.0684 147.076L35.6818 133.281ZM11.9031 125.307C4.66942 116.753 4.94747 101.139 16.0915 91.715L7.05111 81.0252C-9.83887 95.309 -11.1457 119.733 1.21332 134.347L11.9031 125.307ZM16.0915 91.715C29.0514 80.7548 48.8384 80.3279 66.1498 83.0525L68.3264 69.2227C50.3581 66.3947 25.0079 65.8392 7.05111 81.0252L16.0915 91.715ZM66.1266 83.0488C67.5471 83.2773 68.9637 83.5252 70.376 83.7926L72.9799 70.0369C71.4409 69.7455 69.8973 69.4753 68.3496 69.2264L66.1266 83.0488Z" fill="#9CA394" mask="url(#path-1-inside-1_366_217)"/>
</svg>
