<svg width="71" height="51" viewBox="0 0 71 51" fill="none" xmlns="http://www.w3.org/2000/svg">
<path opacity="0.8" fill-rule="evenodd" clip-rule="evenodd" d="M22.9574 23.7116C22.9277 30.5894 28.3062 36.1898 34.9706 36.2205C41.635 36.2511 47.0616 30.7003 47.0913 23.8224L47.1398 12.5643C47.1695 5.68634 41.791 0.0859911 35.1266 0.0553855C28.4622 0.0247799 23.0356 5.57551 23.0059 12.4535L22.9574 23.7116Z" fill="url(#paint0_linear_366_61)"/>
<path opacity="0.8" fill-rule="evenodd" clip-rule="evenodd" d="M37.9843 23.1658C32.7786 27.4601 31.9316 35.2967 36.0927 40.6693C40.2537 46.0419 47.8471 46.916 53.0529 42.6216L61.5741 35.5924C66.7799 31.298 67.6268 23.4614 63.4658 18.0889C59.3047 12.7163 51.7114 11.8421 46.5055 16.1366L37.9843 23.1658Z" fill="url(#paint1_linear_366_61)"/>
<path opacity="0.8" fill-rule="evenodd" clip-rule="evenodd" d="M18.8826 43.0764C24.3596 46.9949 31.8777 45.5891 35.6745 39.9365C39.4713 34.2839 38.1092 26.525 32.632 22.6065L23.6667 16.1926C18.1895 12.2741 10.6716 13.6799 6.87475 19.3325C3.07792 24.9851 4.44002 32.744 9.91723 36.6625L18.8826 43.0764Z" fill="url(#paint2_linear_366_61)"/>
<defs>
<linearGradient id="paint0_linear_366_61" x1="22.9037" y1="36.165" x2="23.0698" y2="1.66808e-05" gradientUnits="userSpaceOnUse">
<stop stop-color="#73CC81"/>
<stop offset="1" stop-color="#C7DB44"/>
</linearGradient>
<linearGradient id="paint1_linear_366_61" x1="28.5584" y1="30.9414" x2="56.5996" y2="9.22354" gradientUnits="userSpaceOnUse">
<stop stop-color="#73CC81"/>
<stop offset="1" stop-color="#C7DB44"/>
</linearGradient>
<linearGradient id="paint2_linear_366_61" x1="28.7997" y1="50.1714" x2="-0.582865" y2="30.4352" gradientUnits="userSpaceOnUse">
<stop stop-color="#73CC81"/>
<stop offset="1" stop-color="#C7DB44"/>
</linearGradient>
</defs>
</svg>
