<svg width="206" height="183" viewBox="0 0 206 183" fill="none" xmlns="http://www.w3.org/2000/svg">
<mask id="path-1-inside-1_366_218" fill="white">
<path fill-rule="evenodd" clip-rule="evenodd" d="M71.6765 76.9147C58.6722 65.6493 45.2875 49.6136 45.2875 30.8687C45.2875 13.1011 60.0733 0 75.2667 0C87.2563 0 96.9305 6.29387 102.779 15.94C108.633 6.29387 118.302 0 130.291 0C145.479 0 160.27 13.1011 160.27 30.8738C160.27 49.9429 146.414 66.2131 133.207 77.4909C134.977 77.1386 136.754 76.8155 138.536 76.5218C156.181 73.6836 178.742 73.5328 194.25 86.5461C208.309 98.3427 209.182 118.354 199.427 129.98C191.729 139.154 180.538 142.378 169.15 140.448C173.024 151.332 171.797 162.909 164.099 172.083C154.347 183.704 134.484 186.323 120.422 174.523C110.561 166.249 105.446 154.24 102.961 142.001C100.482 154.07 95.4192 165.874 85.7294 174.069C71.7165 185.919 51.8472 183.381 42.0474 171.793C34.3142 162.649 33.0382 151.073 36.8737 140.178C25.4903 142.148 14.29 138.971 6.55675 129.827C-3.23959 118.243 -2.44716 98.2243 11.5698 86.3701C27.0282 73.297 49.5968 73.3613 67.2366 76.1376C68.7207 76.3763 70.2008 76.6354 71.6765 76.9147Z"/>
</mask>
<path fill-rule="evenodd" clip-rule="evenodd" d="M71.6765 76.9147C58.6722 65.6493 45.2875 49.6136 45.2875 30.8687C45.2875 13.1011 60.0733 0 75.2667 0C87.2563 0 96.9305 6.29387 102.779 15.94C108.633 6.29387 118.302 0 130.291 0C145.479 0 160.27 13.1011 160.27 30.8738C160.27 49.9429 146.414 66.2131 133.207 77.4909C134.977 77.1386 136.754 76.8155 138.536 76.5218C156.181 73.6836 178.742 73.5328 194.25 86.5461C208.309 98.3427 209.182 118.354 199.427 129.98C191.729 139.154 180.538 142.378 169.15 140.448C173.024 151.332 171.797 162.909 164.099 172.083C154.347 183.704 134.484 186.323 120.422 174.523C110.561 166.249 105.446 154.24 102.961 142.001C100.482 154.07 95.4192 165.874 85.7294 174.069C71.7165 185.919 51.8472 183.381 42.0474 171.793C34.3142 162.649 33.0382 151.073 36.8737 140.178C25.4903 142.148 14.29 138.971 6.55675 129.827C-3.23959 118.243 -2.44716 98.2243 11.5698 86.3701C27.0282 73.297 49.5968 73.3613 67.2366 76.1376C68.7207 76.3763 70.2008 76.6354 71.6765 76.9147Z" fill="#9DD363"/>
<path d="M71.6765 76.9147L71.1185 79.8624L82.0496 81.9316L73.6408 74.6472L71.6765 76.9147ZM102.779 15.94L100.214 17.4954L102.778 21.7246L105.344 17.4964L102.779 15.94ZM133.207 77.4909L131.259 75.2095L122.512 82.6787L133.793 80.4332L133.207 77.4909ZM138.536 76.5218L138.06 73.5598L138.049 73.5617L138.536 76.5218ZM194.25 86.5461L196.179 84.248L196.179 84.248L194.25 86.5461ZM199.427 129.98L201.725 131.908L201.725 131.908L199.427 129.98ZM169.15 140.448L169.651 137.49L164.609 136.636L166.324 141.454L169.15 140.448ZM164.099 172.083L161.8 170.154L161.8 170.154L164.099 172.083ZM120.422 174.523L118.493 176.822L118.493 176.822L120.422 174.523ZM102.961 142.001L105.901 141.404L100.022 141.397L102.961 142.001ZM85.7294 174.069L83.7922 171.778L83.7922 171.778L85.7294 174.069ZM42.0474 171.793L39.7568 173.73L39.7568 173.73L42.0474 171.793ZM36.8737 140.178L39.7034 141.175L41.4018 136.35L36.3622 137.222L36.8737 140.178ZM6.55675 129.827L8.84743 127.89L8.84743 127.89L6.55675 129.827ZM11.5698 86.3701L9.63261 84.0794L9.6326 84.0794L11.5698 86.3701ZM67.2366 76.1376L67.713 73.1757L67.7031 73.1741L67.2366 76.1376ZM73.6408 74.6472C60.7536 63.4832 48.2875 48.2199 48.2875 30.8687H42.2875C42.2875 51.0073 56.5909 67.8154 69.7122 79.1822L73.6408 74.6472ZM48.2875 30.8687C48.2875 14.8084 61.6792 3 75.2667 3V-3C58.4673 -3 42.2875 11.3938 42.2875 30.8687H48.2875ZM75.2667 3C86.0909 3 94.8457 8.64171 100.214 17.4954L105.344 14.3847C99.0154 3.94603 88.4217 -3 75.2667 -3V3ZM105.344 17.4964C110.717 8.64112 119.468 3 130.291 3V-3C117.136 -3 106.548 3.94662 100.214 14.3836L105.344 17.4964ZM130.291 3C143.874 3 157.27 14.8084 157.27 30.8738H163.27C163.27 11.3938 147.085 -3 130.291 -3V3ZM157.27 30.8738C157.27 48.5295 144.358 64.0239 131.259 75.2095L135.155 79.7723C148.47 68.4024 163.27 51.3564 163.27 30.8738H157.27ZM133.793 80.4332C135.53 80.0874 137.274 79.7702 139.024 79.4819L138.049 73.5617C136.233 73.8608 134.424 74.1898 132.621 74.5487L133.793 80.4332ZM139.013 79.4837C156.518 76.668 177.887 76.7322 192.322 88.8443L196.179 84.248C179.596 70.3334 155.844 70.6993 138.06 73.5599L139.013 79.4837ZM192.322 88.8443C205.145 99.6043 205.791 117.729 197.129 128.052L201.725 131.908C212.573 118.98 211.473 97.0811 196.179 84.248L192.322 88.8443ZM197.129 128.052C190.212 136.295 180.146 139.268 169.651 137.49L168.649 143.406C180.93 145.487 193.247 142.013 201.725 131.908L197.129 128.052ZM166.324 141.454C169.895 151.486 168.717 161.911 161.8 170.154L166.397 174.011C174.876 163.906 176.154 151.177 171.977 139.442L166.324 141.454ZM161.8 170.154C153.142 180.473 135.177 182.989 122.35 172.225L118.493 176.822C133.791 189.658 155.552 186.935 166.397 174.011L161.8 170.154ZM122.35 172.225C113.206 164.553 108.313 153.284 105.901 141.404L100.021 142.597C102.578 155.196 107.915 167.945 118.493 176.822L122.35 172.225ZM100.022 141.397C97.6179 153.105 92.7769 164.18 83.7922 171.778L87.6667 176.359C98.0614 167.568 103.347 155.035 105.9 142.604L100.022 141.397ZM83.7922 171.778C71.0106 182.587 53.0396 180.145 44.3381 169.856L39.7568 173.73C50.6548 186.617 72.4224 189.251 87.6667 176.359L83.7922 171.778ZM44.3381 169.856C37.3891 161.639 36.1687 151.215 39.7034 141.175L34.0439 139.182C29.9077 150.931 31.2393 163.659 39.7568 173.73L44.3381 169.856ZM36.3622 137.222C25.8697 139.037 15.796 136.106 8.84743 127.89L4.26608 131.764C12.784 141.836 25.111 145.258 37.3851 143.134L36.3622 137.222ZM8.84743 127.89C0.149359 117.605 0.721339 99.4736 13.507 88.6608L9.6326 84.0794C-5.61566 96.9749 -6.62854 118.882 4.26608 131.764L8.84743 127.89ZM13.507 88.6608C27.8947 76.4932 49.2712 76.347 66.7702 79.1011L67.7031 73.1741C49.9225 70.3756 26.1617 70.1008 9.63261 84.0794L13.507 88.6608ZM66.7603 79.0996C68.2171 79.3339 69.67 79.5881 71.1185 79.8624L72.2345 73.9671C70.7316 73.6826 69.2243 73.4187 67.713 73.1757L66.7603 79.0996Z" fill="#9DD363" mask="url(#path-1-inside-1_366_218)"/>
</svg>
